Coordinates
version=1
nRows=16
nColumns=40
inDegrees=yes

Units are S.I. units (second, meters, Newtons, ...)
Angles are in degrees.

endheader
time	pelvis_tilt	pelvis_list	pelvis_rotation	pelvis_tx	pelvis_ty	pelvis_tz	hip_flexion_r	hip_adduction_r	hip_rotation_r	knee_angle_r	knee_angle_r_beta	ankle_angle_r	subtalar_angle_r	mtp_angle_r	hip_flexion_l	hip_adduction_l	hip_rotation_l	knee_angle_l	knee_angle_l_beta	ankle_angle_l	subtalar_angle_l	mtp_angle_l	lumbar_extension	lumbar_bending	lumbar_rotation	arm_flex_r	arm_add_r	arm_rot_r	elbow_flex_r	pro_sup_r	wrist_flex_r	wrist_dev_r	arm_flex_l	arm_add_l	arm_rot_l	elbow_flex_l	pro_sup_l	wrist_flex_l	wrist_dev_l
      8.12914286	     -0.67096753	     -5.69475529	      3.39544488	      1.06076461	      0.93463102	      0.49062424	      5.13339832	      4.56727215	    -15.04709199	     13.20206996	     13.20206996	     11.01020296	      1.98150260	     -4.66221750	     34.59539140	    -13.96254395	      2.15174992	     57.76142857	     57.76142857	      5.23575816	    -18.76873626	     11.71899072	     -9.91689893	      4.70131843	      2.14241868	     32.10944268	    -21.61023899	     -6.53998125	     80.73304884	     44.83009446	      0.00000000	      0.00000000	     -3.64256565	     -8.84109217	     -6.29291330	     25.46776345	     46.13725724	      0.00000000	      0.00000000
      8.14328571	     -0.89039608	     -5.61107110	      3.71164486	      1.05914441	      0.93462387	      0.49048778	      4.75679716	      4.56724608	    -15.26882047	     12.58901941	     12.58901941	     11.03787827	      2.12799931	     -4.68716492	     34.87084414	    -13.52329790	      1.98286571	     53.74295195	     53.74295195	      5.98470686	    -18.67221650	     11.91115077	     -9.94247125	      4.63909826	      2.31262596	     33.93159024	    -21.70055296	     -6.77073190	     81.77903271	     44.81865268	      0.00000000	      0.00000000	     -4.46798146	     -8.44501843	     -6.26053080	     25.30739318	     46.11826103	      0.00000000	      0.00000000
      8.15742857	     -1.24840154	     -5.56756320	      4.03385062	      1.05739787	      0.93416513	      0.49009623	      4.63302847	      4.55618661	    -15.47634171	     12.16313952	     12.16313952	     11.15176339	      2.18567346	     -4.76362866	     35.16131773	    -13.00777694	      1.97508727	     49.53056398	     49.53056398	      6.59295215	    -18.35801154	     12.13008958	     -9.78445683	      4.62688547	      2.60745796	     35.68949688	    -22.01803348	     -7.02613504	     82.59909692	     44.81118530	      0.00000000	      0.00000000	     -5.13011263	     -8.02177845	     -6.23540727	     25.18544205	     46.10165270	      0.00000000	      0.00000000
      8.17157143	     -1.47812029	     -5.48794955	      4.37578251	      1.05577505	      0.93382540	      0.48948333	      4.33587435	      4.50985505	    -15.75646101	     11.68395564	     11.68395564	     11.25403466	      2.32494317	     -4.89509747	     35.08129980	    -12.37687438	      2.12466751	     45.13319321	     45.13319321	      7.00580760	    -17.85935480	     12.28763610	     -9.83627426	      4.57162254	      2.71861086	     37.33091169	    -22.08276349	     -7.21088966	     83.53773817	     44.79755391	      0.00000000	      0.00000000	     -5.78925809	     -7.66865001	     -6.22007331	     25.09076517	     46.08693889	      0.00000000	      0.00000000
      8.18571429	     -1.56011401	     -5.50536580	      4.79609779	      1.05430551	      0.93349711	      0.48859727	      3.81272059	      4.55797552	    -16.26765627	     11.09882145	     11.09882145	     11.27686281	      2.79279468	     -5.31900591	     34.72567858	    -11.78056148	      2.53894528	     40.73541598	     40.73541598	      7.04193892	    -17.10532264	     11.82735293	    -10.03838978	      4.67524439	      2.53221562	     38.86452573	    -21.77615951	     -7.33423591	     84.68931576	     44.78089943	      0.00000000	      0.00000000	     -6.58317957	     -7.34670744	     -6.24675156	     25.18607371	     46.07789771	      0.00000000	      0.00000000
      8.19985714	     -1.85458256	     -5.52037323	      5.12705085	      1.05282868	      0.93269495	      0.48769068	      3.69665650	      4.56343745	    -16.50565055	     10.84625531	     10.84625531	     11.44974531	      2.79363999	     -5.56891342	     34.57656995	    -11.25520963	      2.87309401	     36.72620449	     36.72620449	      7.32846323	    -15.72661476	     11.90763590	     -9.97032933	      4.69943742	      2.72703684	     40.23148095	    -21.96096893	     -7.50880709	     85.24999552	     44.77851915	      0.00000000	      0.00000000	     -7.02373032	     -7.03468607	     -6.23932284	     25.15590619	     46.06888471	      0.00000000	      0.00000000
      8.21400000	     -2.06491827	     -5.61836375	      5.49362518	      1.05154335	      0.93187618	      0.48657730	      3.49228255	      4.65516955	    -16.78274328	     10.61574364	     10.61574364	     11.65250171	      2.79144243	     -5.82407352	     34.35529304	    -10.81223939	      3.34432450	     33.17001122	     33.17001122	      7.58163688	    -14.14182219	     12.05114044	     -9.96261539	      4.86779850	      2.82514606	     41.41149024	    -22.03299935	     -7.66281892	     85.76631787	     44.77527150	      0.00000000	      0.00000000	     -7.39756639	     -6.74830128	     -6.22251112	     25.08524180	     46.05970265	      0.00000000	      0.00000000
      8.22814286	     -2.12715210	     -5.56337635	      5.81635490	      1.05058187	      0.93135792	      0.48530179	      3.01758047	      4.60359122	    -16.98634136	     10.25151302	     10.25151302	     11.83033460	      2.93410857	     -6.15972888	     33.87482872	    -10.33509863	      3.54493468	     30.07085849	     30.07085849	      7.73625637	    -12.29187071	     12.11778557	    -10.10866926	      4.86659584	      2.79209687	     42.41983012	    -21.80169857	     -7.78919209	     86.30668649	     44.77148062	      0.00000000	      0.00000000	     -7.75457731	     -6.55167391	     -6.20669719	     24.97668700	     46.05244588	      0.00000000	      0.00000000
      8.24228571	     -2.22757858	     -5.63942133	      6.12654736	      1.04986923	      0.93065735	      0.48401436	      2.59179613	      4.69270248	    -17.24334062	      9.89914935	      9.89914935	     11.96525029	      3.05017714	     -6.54222127	     33.56359394	    -10.02816048	      3.70325138	     27.74665566	     27.74665566	      7.97274997	    -10.50872160	     12.06839030	    -10.17525146	      4.96599502	      2.74240642	     43.24009721	    -21.54499654	     -7.99346764	     86.67196539	     44.77696784	      0.00000000	      0.00000000	     -8.01746989	     -6.36840908	     -6.18749699	     24.86378264	     46.04754492	      0.00000000	      0.00000000
      8.25642857	     -2.44854848	     -5.80596908	      6.43292485	      1.04926662	      0.92968370	      0.48260165	      2.41226599	      4.83737303	    -17.43366026	      9.76578742	      9.76578742	     12.21298585	      2.97035249	     -6.72074449	     33.50155036	     -9.75727860	      3.96939568	     26.18677309	     26.18677309	      8.06678522	     -9.30614312	     12.14802651	    -10.02663275	      5.16499065	      2.82271675	     43.81943110	    -21.53989906	     -8.13753088	     86.85896625	     44.78063408	      0.00000000	      0.00000000	     -8.13838395	     -6.20166949	     -6.16782176	     24.82229644	     46.04246287	      0.00000000	      0.00000000
      8.27057143	     -2.57369661	     -5.78791913	      6.63624981	      1.04911978	      0.92902228	      0.48112820	      2.02650740	      4.80237539	    -17.50296067	      9.54198786	      9.54198786	     12.47236475	      2.97493904	     -6.87683494	     33.18741145	     -9.44114271	      3.73218003	     25.10614522	     25.10614522	      8.14778703	     -8.26981748	     12.13533174	     -9.96274176	      5.14780570	      2.86211923	     44.11346917	    -21.28559349	     -8.28182709	     86.99250443	     44.78509058	      0.00000000	      0.00000000	     -8.20513311	     -6.13561922	     -6.14958427	     24.73351259	     46.03991236	      0.00000000	      0.00000000
      8.28471429	     -2.58253266	     -5.82246805	      6.77427670	      1.04951297	      0.92840211	      0.47969636	      1.37227593	      4.87514780	    -17.52325960	      9.08537083	      9.08537083	     12.61610752	      3.12686284	     -7.13787786	     32.82191320	     -9.35499408	      2.96418797	     24.74920071	     24.74920071	      8.16566963	     -7.10753850	     11.21037262	     -9.95624438	      5.15322481	      2.84426613	     44.20952820	    -20.50922786	     -9.11087688	     86.90199985	     44.83072634	      0.00000000	      0.00000000	     -8.21979758	     -6.13596341	     -6.11335843	     24.48054957	     46.04331281	      0.00000000	      0.00000000
      8.29885714	     -2.70300568	     -5.82096187	      6.85358656	      1.05008112	      0.92760174	      0.47810936	      1.01339683	      4.82725016	    -17.48102636	      9.02130217	      9.02130217	     12.92260033	      3.06978158	     -7.19453506	     32.45701226	     -9.12649708	      2.45073569	     24.69207377	     24.69207377	      8.06729798	     -7.13037877	     10.96936920	     -9.76084944	      5.07760947	      2.93660006	     43.92183476	    -20.23069272	     -9.22917634	     86.79275337	     44.84066428	      0.00000000	      0.00000000	     -8.17125394	     -6.16982986	     -6.11465748	     24.47558663	     46.04669823	      0.00000000	      0.00000000
      8.31300000	     -2.82942527	     -5.87099945	      6.90864122	      1.05091520	      0.92665084	      0.47641042	      0.66042073	      4.82301124	    -17.41383087	      8.97778828	      8.97778828	     13.29963679	      3.04372804	     -7.24206008	     32.06985240	     -8.97803246	      1.87447113	     24.94775019	     24.94775019	      7.99290586	     -7.41699407	     10.73431396	     -9.55670246	      5.12023928	      3.04223657	     43.54532901	    -19.93356075	     -9.31598093	     86.64228451	     44.84871968	      0.00000000	      0.00000000	     -8.09462659	     -6.23174401	     -6.12276371	     24.50523481	     46.05073222	      0.00000000	      0.00000000
      8.32714286	     -2.87767805	     -5.93181826	      6.89990254	      1.05222840	      0.92578098	      0.47475434	      0.16610349	      4.85600075	    -17.24272175	      8.89947622	      8.89947622	     13.82806435	      3.04431712	     -6.61663274	     31.36470076	     -8.94723428	      1.05433329	     25.04765963	     25.04765963	      7.17367366	     -7.86977415	      8.58852777	     -9.31622172	      5.09491710	      3.34020460	     42.91467602	    -19.16683548	    -11.00096480	     85.77567725	     44.94470722	      0.00000000	      0.00000000	     -7.92243561	     -6.37279314	     -6.18130040	     24.69330637	     46.07141866	      0.00000000	      0.00000000
      8.34128571	     -2.94585263	     -5.98306195	      6.86754690	      1.05363079	      0.92479809	      0.47290605	     -0.21652702	      4.81713892	    -17.13230186	      8.99923384	      8.99923384	     14.19662950	      3.02864233	     -6.66006870	     30.77031149	     -8.88756891	      0.38562711	     25.48881123	     25.48881123	      7.09739076	     -8.47947447	      8.42862925	     -9.10026826	      5.09820574	      3.34573801	     42.11335010	    -18.76006766	    -10.86297247	     85.56741454	     44.94467610	      0.00000000	      0.00000000	     -7.78134088	     -6.50656634	     -6.19683413	     24.75732047	     46.07755881	      0.00000000	      0.00000000
